<svg width="800" height="600" xmlns="http://www.w3.org/2000/svg">
  <!-- Title -->
  <text x="400" y="40" text-anchor="middle" font-size="20" font-weight="bold">Vision-Language-Action Model Architecture</text>
  
  <!-- Vision Encoder -->
  <rect x="50" y="100" width="150" height="80" fill="#e0e0ff" stroke="#0000ff" stroke-width="2" />
  <text x="125" y="140" text-anchor="middle" font-size="14">Vision Encoder</text>
  <text x="125" y="160" text-anchor="middle" font-size="12">(CLIP/ViT)</text>
  
  <!-- Language Encoder -->
  <rect x="50" y="250" width="150" height="80" fill="#ffe0e0" stroke="#ff0000" stroke-width="2" />
  <text x="125" y="290" text-anchor="middle" font-size="14">Language Encoder</text>
  <text x="125" y="310" text-anchor="middle" font-size="12">(LLM)</text>
  
  <!-- Fusion Layer -->
  <rect x="325" y="175" width="150" height="80" fill="#e0ffe0" stroke="#00cc00" stroke-width="2" />
  <text x="400" y="215" text-anchor="middle" font-size="14">Fusion Layer</text>
  <text x="400" y="235" text-anchor="middle" font-size="12">(Cross-Attention)</text>
  
  <!-- Action Decoder -->
  <rect x="600" y="175" width="150" height="80" fill="#ffffe0" stroke="#cccc00" stroke-width="2" />
  <text x="675" y="215" text-anchor="middle" font-size="14">Action Decoder</text>
  <text x="675" y="235" text-anchor="middle" font-size="12">(MLP/Policy)</text>
  
  <!-- Arrows -->
  <line x1="200" y1="140" x2="325" y2="205" stroke="#000000" stroke-width="2" marker-end="url(#arrowhead)" />
  <line x1="200" y1="290" x2="325" y2="215" stroke="#000000" stroke-width="2" marker-end="url(#arrowhead)" />
  <line x1="475" y1="215" x2="600" y2="215" stroke="#000000" stroke-width="2" marker-end="url(#arrowhead)" />
  
  <!-- Input/Output Labels -->
  <text x="10" y="120" text-anchor="start" font-size="12">RGB Image</text>
  <text x="10" y="270" text-anchor="start" font-size="12">Instruction</text>
  <text x="760" y="210" text-anchor="start" font-size="12">Action</text>
  
  <!-- Arrowhead Marker Definition -->
  <defs>
    <marker id="arrowhead" markerWidth="10" markerHeight="7" 
      refX="0" refY="3.5" orient="auto">
      <polygon points="0 0, 10 3.5, 0 7" fill="#000000" />
    </marker>
  </defs>
</svg>